<svg xmlns="http://www.w3.org/2000/svg" width="347" height="532" viewBox="0 0 347 532" fill="none">
<path d="M115.418 172.217C70.7976 202.08 36.8364 251.641 25.7969 307.615C14.7574 363.588 27.5321 425.214 61.5265 468.776C99.9663 518.007 164.485 540.929 222.045 525.791C239.079 521.549 254.986 513.655 268.666 502.654C287.704 486.905 301.139 464.298 311.088 440.583C334.034 385.009 339.746 323.822 327.482 264.961C320.293 230.852 306.543 197.502 283.291 173.457C237.828 126.424 164.964 139.132 115.418 172.217Z" fill="#E52027"/>
<path d="M38.4238 276.711C38.4238 276.711 21.8976 274.596 21.1209 276.563C20.3442 278.529 39.2997 284.446 39.2997 284.446L38.4238 276.711Z" fill="#FFCDC2"/>
<path d="M105.519 270.167L99.1568 313.63C99.1568 313.63 74.3675 283.107 65.6747 279.735C56.982 276.364 37.3985 276.645 37.3985 276.645C37.3985 276.645 36.1425 270.035 34.0932 269.886C32.044 269.737 31.0028 282.826 31.0028 282.826L26.045 283.669C25.3879 281.633 24.9178 279.542 24.6403 277.422C24.1445 273.555 24.128 269.159 22.7398 269.159C20.6244 269.159 18.3768 278.017 20.4922 287.717L18.0959 288.99C18.0959 288.99 6.84158 278.711 5.7178 279.983C4.59402 281.256 5.86654 283.784 5.86654 283.784C5.86654 283.784 0.908687 281.388 0.0989043 283.784C-0.710878 286.18 18.6578 298.41 20.6244 298.261C22.591 298.112 26.5408 297.137 27.6646 297.567C28.7883 297.997 33.7131 298.823 36.0929 297.699C38.4727 296.575 60.2872 295.733 61.411 296.575C62.5348 297.418 85.8863 362.679 110.99 375.9L130.556 350.053L132.953 285.784L105.519 270.167Z" fill="#FFCDC2"/>
<path d="M46.0905 284.379C46.0905 284.379 41.9424 287.254 40.6699 288.097" stroke="#FFC3B6" stroke-width="0.5" stroke-linecap="round" stroke-linejoin="round"/>
<path d="M34.9366 292.609C33.8578 291.473 32.8584 290.263 31.9454 288.99C31.4661 288.064 31.4661 283.09 31.9454 276.281C32.4246 269.473 34.0442 269.671 34.0442 269.671C34.0442 269.671 36.424 269.803 37.1842 276.05C37.432 279.219 37.9855 282.357 38.8368 285.42C39.5047 287.09 40.6555 288.523 42.142 289.535" stroke="#FFC3B6" stroke-width="0.49" stroke-linecap="round" stroke-linejoin="round"/>
<path d="M32.043 292.51C30.3501 290.9 28.7447 289.201 27.2339 287.42C26.3355 285.233 25.6332 282.971 25.1351 280.661C24.6393 278.628 24.0113 272.084 23.7965 270.745C23.766 270.411 23.6453 270.092 23.4474 269.821C23.2494 269.55 22.9817 269.338 22.6727 269.208C22.6727 269.208 21.0201 269.208 20.3425 272.513C19.6649 275.818 19.2187 285.37 20.7722 288.758C21.8242 290.857 23.49 292.586 25.5483 293.716" stroke="#FFC3B6" stroke-width="0.5" stroke-linecap="round" stroke-linejoin="round"/>
<path d="M14.8738 295.204C14.8738 295.204 2.28088 283.173 5.58612 280.016C5.58612 280.016 6.21411 279.025 10.1639 282.33C14.1136 285.635 21.1703 291.849 23.6492 292.642" stroke="#FFC3B6" stroke-width="0.5" stroke-linecap="round" stroke-linejoin="round"/>
<path d="M99.1895 313.63L115.848 336.42" stroke="#FFC3B6" stroke-width="0.5" stroke-linecap="round" stroke-linejoin="round"/>
<path d="M309.848 286.61C309.848 286.61 326.374 286.61 327.019 288.726C327.663 290.841 308.014 294.163 308.014 294.163L309.848 286.61Z" fill="#FFCDC2"/>
<path d="M244.192 271.357L244.787 315.267C244.787 315.267 273.327 288.247 282.417 286.032C291.506 283.818 310.842 286.66 310.842 286.66C310.842 286.66 312.957 280.281 315.072 280.413C317.188 280.545 316.444 293.634 316.444 293.634L321.286 295.121C322.199 293.185 322.94 291.172 323.501 289.106C324.492 285.338 325.071 281.008 326.459 281.19C328.558 281.471 329.615 290.544 326.261 299.897L328.475 301.451C328.475 301.451 340.969 292.742 341.911 294.146C342.853 295.551 341.283 297.898 341.283 297.898C341.283 297.898 346.472 296.162 347.001 298.658C347.53 301.153 326.674 310.722 324.74 310.325C322.807 309.929 319.039 308.441 317.865 308.673C316.692 308.904 311.701 309.152 309.486 307.714C307.272 306.276 285.755 302.608 284.532 303.285C283.309 303.963 251.628 365.638 225.038 375.471L208.908 347.244L214.94 283.206L244.192 271.357Z" fill="#FFCDC2"/>
<path d="M301.254 293.204C301.254 293.204 304.989 296.608 306.212 297.6" stroke="#FFC3B6" stroke-width="0.5" stroke-linecap="round" stroke-linejoin="round"/>
<path d="M311.236 302.822C312.458 301.839 313.607 300.767 314.674 299.616C315.268 298.774 315.913 293.849 316.409 287.04C316.905 280.231 315.169 280.215 315.169 280.215C315.169 280.215 312.79 280.05 311.236 286.148C310.547 289.249 309.573 292.281 308.327 295.204C307.453 296.768 306.137 298.038 304.543 298.856" stroke="#FFC3B6" stroke-width="0.49" stroke-linecap="round" stroke-linejoin="round"/>
<path d="M314.129 303.02C316.022 301.653 317.832 300.174 319.549 298.591C320.73 296.547 321.725 294.401 322.524 292.179C323.284 290.229 324.755 283.817 325.135 282.594C325.211 282.266 325.374 281.964 325.607 281.719C325.839 281.475 326.133 281.298 326.457 281.206C326.457 281.206 328.11 281.421 328.325 284.792C328.54 288.163 327.763 297.699 325.78 300.839C324.467 302.797 322.587 304.308 320.392 305.169" stroke="#FFC3B6" stroke-width="0.5" stroke-linecap="round" stroke-linejoin="round"/>
<path d="M330.722 308.011C330.722 308.011 344.769 297.732 341.91 294.162C341.91 294.162 341.414 293.105 337.084 295.815C332.754 298.525 324.921 303.813 322.359 304.276" stroke="#FFC3B6" stroke-width="0.5" stroke-linecap="round" stroke-linejoin="round"/>
<path d="M244.786 315.266L225.285 335.676" stroke="#FFC3B6" stroke-width="0.5" stroke-linecap="round" stroke-linejoin="round"/>
<path d="M252.586 185.538C251.196 181.267 248.732 177.426 245.43 174.383C242.125 171.441 238.572 169.028 234.11 169.111C236.442 165.415 237.717 161.15 237.799 156.781C237.881 152.411 236.765 148.103 234.572 144.322C232.148 140.552 228.756 137.503 224.749 135.494C220.743 133.485 216.27 132.59 211.799 132.902C211.155 129.597 208.329 127.317 205.42 125.763C195.405 120.409 181.92 122.012 172.979 129.068C169.086 127.888 164.923 127.933 161.057 129.198C157.19 130.463 153.806 132.887 151.363 136.141L150.9 136.637C143.337 139.069 136.711 143.779 131.928 150.122C129.006 154.126 126.915 158.675 125.779 163.5C124.644 168.326 124.487 173.33 125.318 178.217C125.451 180.997 125.815 183.76 126.409 186.48C123.632 187.806 121.192 189.744 119.271 192.148C117.351 194.553 116 197.36 115.32 200.361C114.022 206.397 114.906 212.698 117.815 218.143C120.03 222.407 124.26 227.034 129.036 226.539C132.689 233.413 140.026 237.446 147.215 240.239C166.898 247.808 188.613 248.931 209.568 246.469C219.715 245.279 230.143 243.164 238.324 236.966C246.504 230.769 252.338 219.697 249.049 210.029C254.701 203.485 255.428 193.701 252.586 185.538Z" fill="#240A19"/>
<path d="M129.933 333.857C129.933 333.857 96.4484 382.899 84.6255 439.812C72.8027 496.726 76.6006 485.038 76.6006 485.038C76.6006 485.038 169.392 580.062 274.09 498.259C274.09 498.259 223.655 348.815 216.347 332.172L131.917 333.922" fill="#324D63"/>
<path d="M255.941 283.47C255.941 283.47 255.098 277.984 246.653 258.78C241.728 247.41 233.53 237.762 223.103 231.066L195.62 215.747L163.609 215.35C163.609 215.35 146.488 223.101 137.332 229.05C131.069 232.901 112.543 245.113 103.189 260.036L93.2734 278.612L123.946 293.022C123.836 295.354 123.964 297.69 124.326 299.996C126.855 312.358 129.102 334.585 129.102 334.585C129.102 334.585 184.25 351.458 216.03 334.304C216.03 334.304 219.236 312.044 220.988 296.46L255.941 283.47Z" fill="#FEE9E8"/>
<path d="M132.209 265.11C132.209 265.11 122.079 284.792 123.483 296.889C124.888 308.986 129.102 334.585 129.102 334.585" stroke="#FFC3B6" stroke-width="0.5" stroke-linecap="round" stroke-linejoin="round"/>
<path d="M211.848 262.02C211.848 262.02 220.276 289.023 220.557 297.732C220.838 306.441 216.062 334.304 216.062 334.304" stroke="#FFC3B6" stroke-width="0.5" stroke-linecap="round" stroke-linejoin="round"/>
<path d="M146.868 213.483C154.014 213.483 159.808 207.689 159.808 200.543C159.808 193.396 154.014 187.603 146.868 187.603C139.721 187.603 133.928 193.396 133.928 200.543C133.928 207.689 139.721 213.483 146.868 213.483Z" stroke="#FF8F33" stroke-width="0.62" stroke-linecap="round" stroke-linejoin="round"/>
<path d="M197.786 189.437L195.604 215.746C195.604 215.746 191.803 227.976 179.078 228.818C166.353 229.661 163.609 219.118 163.609 219.118V206.674L197.786 189.437Z" fill="#FFCDC2"/>
<g style="mix-blend-mode:multiply">
<path d="M190.332 194.561C190.396 199.524 188.698 204.349 185.539 208.178C182.407 211.993 178.375 214.969 173.806 216.838C171.686 217.975 169.221 218.293 166.881 217.73C165.602 217.218 164.468 216.401 163.576 215.35V208.922C168.258 208.556 172.812 207.216 176.946 204.988C181.929 202.239 186.447 198.719 190.332 194.561Z" fill="#FFE7E2"/>
</g>
<path d="M203.866 165.872C203.844 169.028 203.285 172.157 202.213 175.126C201.673 176.701 200.987 178.223 200.164 179.671C199.726 180.487 199.241 181.276 198.71 182.034C197.057 198.973 190.017 209.765 169.524 209.765C167.018 209.752 164.513 209.608 162.021 209.335C135.513 206.575 143.115 160.831 143.115 160.831C144.316 154.253 147.769 148.299 152.882 143.991C153.064 143.809 153.263 143.644 153.444 143.495C159.051 138.95 166.058 136.486 173.276 136.521H174.928C191.008 137.348 203.866 150.172 203.866 165.872Z" fill="#FFCDC2"/>
<path d="M168.864 173.705C168.873 174.288 169.056 174.856 169.387 175.336C169.719 175.816 170.185 176.188 170.728 176.403C171.27 176.619 171.864 176.67 172.435 176.549C173.006 176.428 173.528 176.141 173.936 175.723C174.344 175.306 174.62 174.777 174.728 174.204C174.837 173.63 174.773 173.038 174.545 172.5C174.317 171.963 173.936 171.505 173.448 171.184C172.961 170.863 172.389 170.694 171.805 170.697C171.414 170.699 171.027 170.779 170.667 170.931C170.307 171.084 169.98 171.307 169.707 171.587C169.433 171.866 169.218 172.198 169.073 172.561C168.928 172.925 168.857 173.313 168.864 173.705Z" fill="#240A19"/>
<path d="M147.082 172.482C147.089 173.02 147.254 173.544 147.558 173.988C147.861 174.432 148.289 174.776 148.788 174.978C149.287 175.179 149.834 175.228 150.361 175.119C150.888 175.01 151.37 174.748 151.748 174.365C152.126 173.983 152.383 173.497 152.485 172.969C152.588 172.441 152.532 171.894 152.325 171.398C152.117 170.902 151.768 170.478 151.32 170.18C150.873 169.881 150.347 169.722 149.809 169.722C149.449 169.724 149.092 169.797 148.76 169.937C148.428 170.077 148.127 170.281 147.874 170.537C147.621 170.794 147.42 171.097 147.285 171.431C147.149 171.765 147.08 172.122 147.082 172.482Z" fill="#240A19"/>
<path d="M161.179 184.645C161.008 184.372 160.783 184.136 160.518 183.951C160.413 183.88 160.293 183.833 160.167 183.813C160.042 183.793 159.914 183.801 159.791 183.835C159.361 183.984 159.262 184.513 159.18 184.91" stroke="#0E1219" stroke-width="0.5" stroke-linecap="round" stroke-linejoin="round"/>
<path d="M160.402 190.198C161.198 189.035 162.332 188.146 163.651 187.649C164.969 187.153 166.408 187.073 167.773 187.421" stroke="#0E1219" stroke-width="0.5" stroke-linecap="round" stroke-linejoin="round"/>
<path d="M157.346 172.779C157.082 174.333 156.834 175.886 156.569 177.456C155.632 177.406 154.702 177.649 153.909 178.15C153.303 178.65 152.883 179.34 152.718 180.108C152.553 180.875 152.653 181.676 153 182.381C153.367 183.076 153.894 183.674 154.538 184.125C155.181 184.576 155.923 184.867 156.701 184.975" stroke="#0E1219" stroke-width="0.5" stroke-linecap="round" stroke-linejoin="round"/>
<path d="M152.387 164.169C152.028 163.816 151.6 163.539 151.13 163.356C150.661 163.173 150.158 163.087 149.654 163.104C149.151 163.121 148.655 163.24 148.199 163.455C147.743 163.669 147.335 163.974 147 164.351C146.504 164.897 146.091 165.789 146.57 166.351C146.923 166.651 147.38 166.8 147.843 166.764C149.102 166.808 150.364 166.736 151.61 166.549C151.864 166.515 152.103 166.413 152.302 166.253C152.502 166.094 152.654 165.883 152.742 165.643C152.83 165.403 152.852 165.144 152.804 164.893C152.756 164.642 152.64 164.409 152.47 164.219L152.387 164.169Z" fill="#240A19"/>
<path d="M170.218 161.69C170.602 161.363 171.048 161.117 171.53 160.966C172.012 160.816 172.519 160.765 173.021 160.815C173.522 160.866 174.009 161.019 174.45 161.263C174.892 161.507 175.279 161.838 175.59 162.236C176.069 162.814 176.416 163.723 175.887 164.252C175.705 164.396 175.494 164.499 175.269 164.556C175.044 164.613 174.81 164.622 174.581 164.583C173.325 164.531 172.075 164.37 170.846 164.103C170.597 164.048 170.368 163.927 170.181 163.752C169.995 163.578 169.86 163.356 169.789 163.111C169.718 162.866 169.714 162.606 169.778 162.359C169.842 162.112 169.971 161.887 170.152 161.707L170.218 161.69Z" fill="#240A19"/>
<path d="M205.303 165.739C205.303 168.962 203.32 172.218 202.295 175.126C201.755 176.702 201.069 178.223 200.246 179.671C196.392 178.773 192.973 176.557 190.578 173.407C187.99 169.836 186.91 165.39 187.57 161.029C183.473 162.183 179.086 161.678 175.358 159.625C172.78 158.187 170.003 155.113 170.069 152.172C167.203 153.353 164.018 153.517 161.046 152.634C158.091 151.745 155.59 149.758 154.055 147.082C153.533 146.106 153.154 145.059 152.932 143.975C153.113 143.793 153.113 142.653 153.295 142.504C158.887 137.909 165.889 135.377 173.127 135.332C173.655 135.332 175.258 135.53 175.771 135.546C191.933 136.356 205.303 150.04 205.303 165.739Z" fill="#240A19"/>
<path d="M202.015 171.87C203.548 171.314 205.197 171.155 206.808 171.408C207.611 171.546 208.375 171.853 209.05 172.309C209.726 172.765 210.296 173.359 210.725 174.052C211.171 174.88 211.441 175.791 211.518 176.729C211.632 178.655 211.275 180.579 210.477 182.336C209.679 184.093 208.465 185.628 206.94 186.81C203.863 189.097 200.096 190.263 196.264 190.115C195.818 190.164 195.367 190.113 194.943 189.964C194.52 189.815 194.135 189.573 193.818 189.256C193.492 188.726 193.336 188.108 193.372 187.487C193.18 184.041 193.68 180.591 194.843 177.34C196 174.663 199.371 172.713 202.015 171.87Z" fill="#FFCDC2"/>
<path d="M200.049 183.604C200.285 182.28 200.869 181.042 201.74 180.017C202.611 178.992 203.738 178.217 205.007 177.77" stroke="#FFC3B6" stroke-width="0.5" stroke-linecap="round" stroke-linejoin="round"/>
<path d="M192.563 171.341C192.151 174.165 192.348 177.045 193.142 179.786C194.985 177.624 196.383 175.119 197.257 172.416C197.456 171.887 197.568 171.328 197.587 170.763C197.585 170.469 197.519 170.18 197.394 169.914C197.268 169.649 197.086 169.414 196.86 169.226C196.307 168.886 195.653 168.746 195.009 168.83C194.315 168.796 192.663 170.647 192.563 171.341Z" fill="#240A19"/>
<path d="M201.719 213.632C208.866 213.632 214.659 207.838 214.659 200.692C214.659 193.545 208.866 187.752 201.719 187.752C194.573 187.752 188.779 193.545 188.779 200.692C188.779 207.838 194.573 213.632 201.719 213.632Z" stroke="#FF8F33" stroke-width="0.62" stroke-linecap="round" stroke-linejoin="round"/>
<path d="M117.914 98.7097C126.72 85.5063 130.251 69.4797 127.81 53.7982C125.369 38.1167 117.134 23.9216 104.732 14.0192C92.3295 4.11674 76.6635 -0.772343 60.8305 0.31842C44.9976 1.40918 30.15 8.40041 19.223 19.91C8.29605 31.4196 2.08496 46.6099 1.8176 62.478C1.55023 78.3461 7.24605 93.737 17.7791 105.608C28.3121 117.479 42.9157 124.967 58.7029 126.59C74.4902 128.214 90.312 123.855 103.041 114.376L134.854 130.555L117.914 98.7097Z" fill="#E52027"/>
<path d="M62.3365 72.9622L61.7746 73.111C61.474 73.1086 61.1797 73.0242 60.9234 72.867C60.6671 72.7097 60.4586 72.4855 60.3203 72.2186C59.303 70.3122 58.7376 68.1975 58.6677 66.0378C58.6677 61.0801 61.9729 58.0227 65.4765 54.8663C66.7568 53.7627 67.935 52.5459 68.9966 51.2306C69.5888 50.4343 69.9285 49.4787 69.9716 48.4873C69.9716 45.8266 67.6745 44.521 65.179 44.521C62.3484 44.7049 59.6503 45.7875 57.4778 47.6114C57.189 47.8084 56.8518 47.9227 56.5028 47.9419C56.2912 47.9388 56.084 47.8808 55.9015 47.7736C55.719 47.6664 55.5674 47.5137 55.4616 47.3304L53.0323 43.7608C52.9284 43.6383 52.85 43.4962 52.8018 43.343C52.7535 43.1897 52.7364 43.0284 52.7513 42.8684C52.754 42.6366 52.8053 42.4079 52.9021 42.1972C52.9989 41.9865 53.139 41.7985 53.3132 41.6455C56.6545 38.7185 60.9355 37.0882 65.3773 37.0513C72.4671 37.0513 77.8711 41.2323 77.8711 48.355C77.8711 52.8832 75.7227 55.7587 72.5993 58.849L71.2772 60.1546C70.0542 61.2221 68.9211 62.3884 67.8893 63.6416C67.2358 64.4341 66.869 65.424 66.8482 66.451C66.8867 67.4726 67.1224 68.477 67.5423 69.4091C67.6047 69.6086 67.649 69.8132 67.6745 70.0206C67.67 70.2676 67.5955 70.5083 67.4596 70.7147C67.2856 70.9092 67.0786 71.0715 66.8482 71.194L62.3365 72.9622ZM57.8414 83.5223C57.8435 82.7708 57.9943 82.0271 58.2848 81.3341C58.5754 80.641 59.0002 80.0122 59.5347 79.4839C60.0692 78.9555 60.7028 78.5381 61.3992 78.2555C62.0956 77.973 62.841 77.8309 63.5925 77.8374C65.1003 77.8374 66.5463 78.4363 67.6124 79.5025C68.6786 80.5686 69.2775 82.0146 69.2775 83.5223C69.2775 85.0301 68.6786 86.4761 67.6124 87.5422C66.5463 88.6083 65.1003 89.2073 63.5925 89.2073C62.841 89.2138 62.0956 89.0717 61.3992 88.7892C60.7028 88.5066 60.0692 88.0891 59.5347 87.5608C59.0002 87.0325 58.5754 86.4037 58.2848 85.7106C57.9943 85.0176 57.8435 84.2739 57.8414 83.5223Z" fill="#FEE9E8"/>
<path d="M283.208 237.726L282.663 237.892C282.36 237.898 282.061 237.822 281.799 237.67C281.536 237.519 281.321 237.298 281.176 237.032C280.118 235.159 279.513 233.066 279.407 230.918C279.259 225.96 282.498 222.803 285.869 219.548C287.082 218.382 288.188 217.11 289.174 215.747C289.74 214.936 290.051 213.975 290.067 212.987C289.984 210.31 287.654 209.07 285.109 209.153C282.286 209.411 279.621 210.57 277.507 212.458C277.23 212.671 276.897 212.798 276.548 212.822C276.334 212.826 276.123 212.775 275.935 212.674C275.747 212.572 275.588 212.424 275.474 212.243L272.946 208.74C272.739 208.496 272.632 208.183 272.648 207.864C272.646 207.631 272.69 207.4 272.778 207.184C272.866 206.969 272.996 206.773 273.16 206.608C276.427 203.587 280.663 201.829 285.109 201.65C292.182 201.452 297.702 205.468 297.917 212.607C298.049 217.118 295.983 220.06 292.959 223.233L291.686 224.572C290.48 225.673 289.374 226.878 288.381 228.174C287.747 228.979 287.403 229.975 287.406 231C287.466 232.067 287.735 233.112 288.199 234.074C288.275 234.271 288.325 234.476 288.348 234.686C288.356 234.93 288.293 235.171 288.166 235.38C287.996 235.583 287.788 235.751 287.555 235.875L283.208 237.726ZM279.011 248.419C278.991 247.666 279.12 246.917 279.39 246.215C279.66 245.513 280.067 244.871 280.585 244.326C281.104 243.781 281.726 243.343 282.414 243.039C283.102 242.735 283.844 242.569 284.596 242.552C285.365 242.495 286.137 242.594 286.866 242.843C287.595 243.093 288.266 243.487 288.838 244.003C289.41 244.519 289.872 245.146 290.195 245.845C290.519 246.544 290.697 247.302 290.719 248.072C290.742 248.842 290.608 249.609 290.325 250.326C290.043 251.043 289.619 251.695 289.077 252.244C288.536 252.792 287.889 253.225 287.176 253.516C286.462 253.807 285.697 253.951 284.927 253.938C284.176 253.965 283.427 253.843 282.723 253.58C282.019 253.317 281.374 252.917 280.825 252.405C280.275 251.892 279.832 251.276 279.521 250.592C279.21 249.908 279.036 249.17 279.011 248.419Z" fill="#FEE9E8"/>
<path d="M57.7425 401.829C58.0894 401.163 58.5643 400.571 59.14 400.088C59.7158 399.605 60.381 399.241 61.0978 399.015C61.8146 398.789 62.5688 398.707 63.3173 398.773C64.0659 398.839 64.794 399.052 65.4602 399.4C66.1254 399.741 66.7169 400.209 67.2011 400.778C67.6852 401.348 68.0525 402.007 68.2819 402.718C68.5114 403.429 68.5984 404.179 68.5382 404.924C68.478 405.669 68.2716 406.395 67.9309 407.06C67.5901 407.725 67.1217 408.316 66.5524 408.801C65.983 409.285 65.3239 409.652 64.6126 409.881C63.9013 410.111 63.1518 410.198 62.4069 410.138C61.6619 410.077 60.9362 409.871 60.271 409.53C59.598 409.192 58.9986 408.724 58.507 408.154C58.0154 407.583 57.6414 406.921 57.4064 406.205C57.1715 405.49 57.0802 404.735 57.1379 403.984C57.1956 403.233 57.401 402.501 57.7425 401.829ZM66.5674 394.492L66.0221 394.36C65.7463 394.232 65.5144 394.026 65.3555 393.768C65.1967 393.509 65.1181 393.209 65.1297 392.905C65.1047 390.754 65.58 388.627 66.5179 386.691C68.7985 382.246 73.1283 381.073 77.6565 379.85C79.2956 379.446 80.8943 378.893 82.4326 378.197C83.3311 377.771 84.0716 377.071 84.5479 376.197C85.7709 373.834 84.3331 371.62 82.102 370.479C79.4963 369.363 76.6047 369.097 73.839 369.719C73.4917 369.763 73.1392 369.717 72.8143 369.587C72.6312 369.482 72.4767 369.334 72.3643 369.155C72.252 368.976 72.1852 368.773 72.1698 368.562L71.641 364.282C71.5693 363.966 71.6226 363.634 71.7897 363.357C71.9014 363.153 72.0524 362.974 72.2339 362.829C72.4155 362.684 72.624 362.577 72.8474 362.514C77.1598 361.435 81.7163 361.939 85.6882 363.935C92.0012 367.158 94.9098 373.355 91.6542 379.684C89.5884 383.717 86.3658 385.303 82.1847 386.625L80.4164 387.171C78.8335 387.566 77.2858 388.091 75.7891 388.741C74.8504 389.146 74.0761 389.857 73.5911 390.757C73.1248 391.718 72.8551 392.764 72.7978 393.831C72.7598 394.039 72.7046 394.243 72.6326 394.442C72.5218 394.658 72.3492 394.837 72.1368 394.954C71.8913 395.057 71.6256 395.102 71.36 395.087L66.5674 394.492Z" fill="#FEE9E8"/>
</svg>
